<?xml version="1.0" encoding="iso-8859-1"?>
<!-- Generator: Adobe Illustrator 24.2.0, SVG Export Plug-In . SVG Version: 6.00 Build 0)  -->
<svg version="1.1" id="Ebene_1" xmlns="http://www.w3.org/2000/svg" xmlns:xlink="http://www.w3.org/1999/xlink" x="0px" y="0px"
	 viewBox="0 0 987.9 437" style="enable-background:new 0 0 987.9 437;" xml:space="preserve">
<style type="text/css">
	.st0{fill:#64656B;}
	.st1{font-family:'FuturaPT-Demi';}
	.st2{font-size:58.6863px;}
</style>
<path class="st0" d="M889.8,264.7c-4.6,2.2-15.8,3.8-25.3,3.8c-22.5,0-34.5-9.5-34.5-25c0-26.1,29.9-28.5,59.7-30.1V264.7z
	 M918,279.6v-92.3c0-36.1-21.2-49.7-56.2-49.7c-19.6,0-39.4,5.2-51.1,10.3l7.6,20.4c9.8-4.6,26.6-9,40.5-9c18.7,0,31,6.5,31,25v9.2
	c-44.3,2.4-87.7,9.8-87.7,50.5c0,28.8,21.2,45.9,63.3,45.9C886,289.9,907.4,285.3,918,279.6 M767.9,286.9L709,210.4l56.7-69.8h-34.2
	l-52.4,67.1h-0.5v-67.1h-29.6v146.4h29.6v-73h0.5l54.6,73H767.9z M591.1,140.6h-29.9v146.4h29.9V140.6z M503.7,286.9V186.5
	c0-31-19.8-48.9-60.8-48.9c-22.8,0-41.5,4.3-56.2,10.3v139h29.6V165.8c6-2.4,16-4.3,26.9-4.3c20.4,0,30.7,10.6,30.7,27.7v97.8H503.7
	z M329.1,140.6h-29.9v146.4h29.9V140.6z M240.8,73.8H211v213.1h29.9V73.8z M168.9,286.9L110,210.4l56.7-69.8h-34.2l-52.4,67.1h-0.5
	v-67.1H50v146.4h29.6v-73h0.5l54.6,73H168.9z"/>
<path class="st0" d="M784.4,365.7c6.3,0,9.6-4.1,9.6-8.7c0-3.6-1.9-6.9-6.9-8.5l-1.7-0.6c-2.9-0.9-3.8-2.2-3.8-3.7
	c0-1.7,1.3-3,3.5-3c2.1,0,4.4,0.9,7.1,2.4l0.9-5.4c-2.7-1.4-5.4-2.1-7.8-2.1c-5.4,0-9.1,3.6-9.1,8.3c0,3.7,1.9,6.9,7,8.6l1.7,0.6
	c2.8,0.9,3.6,2.2,3.6,3.7c0,1.8-1.4,3.3-4,3.3c-2.7,0-5.6-1.3-8.2-3.4l-0.9,5.5C777.6,364.3,780.7,365.7,784.4,365.7 M759.7,365.7
	c2.6,0,5.3-0.7,7.6-1.9l-0.9-5.7c-2.1,1.3-4.3,2-6.5,2c-5.3,0-9.4-4-9.4-9.2c0-5.2,4.1-9.3,9.4-9.3c2.2,0,4.4,0.7,6.2,1.7l0.9-5.7
	c-2.1-1-4.5-1.6-7.1-1.6c-8.6,0-15.3,6.5-15.3,14.8C744.6,359.2,751.2,365.7,759.7,365.7 M729.4,365.1h5.8v-28.8l-5.8,0.7V365.1z
	 M721,342.1l-0.8-5.4h-19l-0.9,5.4h7.5v23h5.8v-23H721z M681.6,360v-6.8h9.1V348h-9.1v-6.2h11.1l-0.8-5.1h-16v28.4h16.5l0.8-5.2
	H681.6z M659.8,337v10.9h-12.7v-11.6l-5.8,0.7v28.1h5.8v-11.7h12.7v11.7h5.8v-28.8L659.8,337z M633.1,342.1l-0.8-5.4h-19l-0.9,5.4
	h7.5v23h5.8v-23H633.1z M596.7,365.7c6.3,0,9.6-4.1,9.6-8.7c0-3.6-1.9-6.9-6.9-8.5l-1.7-0.6c-2.9-0.9-3.8-2.2-3.8-3.7
	c0-1.7,1.3-3,3.5-3c2.1,0,4.4,0.9,7.1,2.4l0.9-5.4c-2.7-1.4-5.4-2.1-7.8-2.1c-5.4,0-9.1,3.6-9.1,8.3c0,3.7,1.9,6.9,7,8.6l1.7,0.6
	c2.8,0.9,3.6,2.2,3.6,3.7c0,1.8-1.4,3.3-4,3.3c-2.7,0-5.6-1.3-8.2-3.4l-0.9,5.5C589.9,364.3,593,365.7,596.7,365.7 M568,360v-6.8
	h9.1V348H568v-6.2h11.1l-0.8-5.1h-16v28.4h16.5l0.8-5.2H568z M526.6,341.5h1.7c3.3,0,5.2,1.9,5.2,4.5c0,2.7-1.9,4.6-5.2,4.6h-1.7
	V341.5z M540.8,365.1l-7.7-11.2c3.9-1.2,6.3-4.3,6.3-8.2c0-5.2-3.8-8.9-10.4-8.9h-8.2v28.4h5.7v-11.6l7.3,11.6H540.8z M496.6,360.2
	c-5.2,0-9.2-4.1-9.2-9.3c0-5.2,4-9.3,9.2-9.3c5.2,0,9.2,4.1,9.2,9.3C505.7,356.1,501.7,360.2,496.6,360.2 M496.6,365.7
	c8.4,0,15.1-6.5,15.1-14.8c0-8.3-6.7-14.8-15.1-14.8c-8.5,0-15.1,6.5-15.1,14.8C481.5,359.2,488.1,365.7,496.6,365.7 M464,341.9
	h10.5l-0.8-5.2h-15.5v28.4h5.8V354h8.5v-5.3H464V341.9z M424.5,348.6l-0.8,4.9h6.4v5.9c-1.3,0.6-2.7,0.8-4.3,0.8
	c-5.3,0-9.4-4.1-9.4-9.3c0-5.3,4.2-9.4,9.6-9.4c2.4,0,4.9,0.7,7.1,2l0.9-5.5c-2.3-1.2-5.2-1.9-8-1.9c-8.6,0-15.3,6.5-15.3,14.8
	c0,8.3,6.6,14.8,15,14.8c3.5,0,7.1-1,9.8-2.6v-14.4H424.5z M401.4,336.3l-5.8,0.7v16.1l-18.9-17.7v29.6h5.8v-16.5l18.9,17.8V336.3z
	 M360.3,365.1h5.8v-28.8l-5.8,0.7V365.1z M351.9,342.1l-0.8-5.4h-19l-0.9,5.4h7.5v23h5.8v-23H351.9z M312.5,360v-6.8h9.1V348h-9.1
	v-6.2h11.1l-0.8-5.1h-16v28.4h16.5l0.8-5.2H312.5z M298.4,365.1l-10.2-14.7l9.8-13.7h-6.7l-8.6,12.6v-13l-5.8,0.7v28.1h5.8v-13.4
	l9,13.4H298.4z M253.9,341.5h1.7c3.3,0,5.2,1.9,5.2,4.5c0,2.7-1.9,4.6-5.2,4.6h-1.7V341.5z M268.1,365.1l-7.7-11.2
	c3.9-1.2,6.3-4.3,6.3-8.2c0-5.2-3.8-8.9-10.4-8.9h-8.2v28.4h5.7v-11.6l7.3,11.6H268.1z M223.5,353.9l2.9-6.8l2.9,6.8H223.5z
	 M234.1,365.1h6.3l-14.1-29.4l-14,29.4h6.3l2.7-6.3h10.1L234.1,365.1z M205.6,365.1l-3.3-29.9l-12.5,20.4l-12.5-20.4l-3.3,29.9h5.8
	l1.4-13.6l8.6,14.2l8.6-14.2l1.4,13.6H205.6z"/>
<text transform="matrix(1 0 0 1 908.8027 137.6523)" class="st0 st1 st2">®</text>
</svg>
