<?xml version="1.0" encoding="utf-8"?>
<!-- Generator: Adobe Illustrator 24.2.3, SVG Export Plug-In . SVG Version: 6.00 Build 0)  -->
<svg version="1.1" id="Ebene_1" xmlns="http://www.w3.org/2000/svg" xmlns:xlink="http://www.w3.org/1999/xlink" x="0px" y="0px"
	 viewBox="0 0 90.6 90.6" style="enable-background:new 0 0 90.6 90.6;" xml:space="preserve">
<style type="text/css">
	.st0{fill:#979075;}
</style>
<path class="st0" d="M90.6,71.4L72.8,53.5l0,0c-0.4-0.4-0.9-0.6-1.5-0.6s-1.1,0.2-1.5,0.6L59.4,63.7c-0.5,0.5-1.5,0.5-2,0L26.9,33.1
	c-0.5-0.5-0.5-1.5,0-2l10.2-10.2c0.4-0.4,0.7-1,0.7-1.6s-0.2-1.1-0.7-1.6L19.2,0c-0.5-0.5-1-0.7-1.6-0.7S16.5-0.4,16.2,0l-14,14
	c-3,3-3.6,7.6-1.5,11.2l3.8,6.9c12.5,22.8,31.2,41.5,54,54.1l6.9,3.8c1.4,0.8,3,1.2,4.5,1.2c2.4,0,4.8-1,6.7-2.8l14-14
	c0.5-0.5,0.7-1,0.7-1.6C91.2,72.3,91,71.8,90.6,71.4z M70,86.8c-0.9,0-1.8-0.2-2.5-0.7l-6.9-3.8c-21.9-12-40-30.2-52.4-52.3
	l-3.8-6.9c-1.1-2-0.7-4.4,0.9-6L17.7,4.7l14.7,14.7L23.8,28c-2.3,2.3-2.3,5.9-0.1,8.2l30.6,30.6c1.1,1.1,2.6,1.7,4.2,1.6
	c1.5,0,3-0.6,4-1.6l8.6-8.6L85.8,73L73.5,85.4C72.6,86.4,71.4,86.8,70,86.8z"/>
<path class="st0" d="M45.3,3.8c22.9,0,41.5,18.6,41.5,41.5c0,1.2,1,2.2,2.2,2.2c1.1,0,2.2-1,2.2-2.1c0-12.2-4.7-23.7-13.3-32.4
	C69.1,4.1,57.6-0.6,45.3-0.6c-1.2,0-2.1,1-2.1,2.1C43.1,2.6,44,3.8,45.3,3.8z"/>
<path class="st0" d="M72.8,43.8c0,1.2,1,2.2,2.2,2.2c1.1,0,2.2-1,2.2-2.2c0-16.7-13.6-30.3-30.4-30.3c-1.2,0-2.1,1-2.1,2.1
	s1,2.1,2.1,2.1C61.2,17.8,72.8,29.5,72.8,43.8z"/>
<path class="st0" d="M46.2,29.7c0,1.2,1,2.1,2.2,2.1c5.7,0,10.3,4.6,10.3,10.4c0,1.2,1,2.1,2.2,2.1c1.1,0,2.1-1,2.1-2.1
	c0-8.1-6.6-14.7-14.6-14.7C47.2,27.5,46.2,28.5,46.2,29.7z"/>
</svg>
